<svg width="29" height="33" viewBox="0 0 29 33" fill="none" xmlns="http://www.w3.org/2000/svg">
<path d="M25.5494 3.93331C25.2817 3.6456 24.96 3.41761 24.6042 3.2633C24.2484 3.109 23.8659 3.03164 23.4803 3.03597H17.3461C17.0408 2.15821 16.4888 1.39538 15.7612 0.845856C15.0156 0.295663 14.123 0 13.2077 0C12.2924 0 11.3999 0.295663 10.6543 0.845856C9.92668 1.39538 9.37464 2.15821 9.06935 3.03597H2.93518C2.5495 3.03164 2.16703 3.109 1.81122 3.2633C1.45541 3.41761 1.13376 3.6456 0.865994 3.93331C0.588389 4.21082 0.3684 4.54418 0.219516 4.91294C0.0706316 5.28169 -0.00401039 5.67808 0.000166062 6.0778V27.3706C-0.00401039 27.7703 0.0706316 28.1667 0.219516 28.5354C0.3684 28.9042 0.588389 29.2375 0.865994 29.5151C1.13376 29.8028 1.45541 30.0308 1.81122 30.1851C2.16703 30.3394 2.5495 30.4167 2.93518 30.4124H12.1071C11.7908 29.9608 11.5203 29.4767 11.3 28.9675C11.0756 28.447 10.8796 27.9139 10.713 27.3706H2.93518V6.0778H5.87019V10.6405H20.5452V6.0778H23.4803V14.1386C24.0045 14.3113 24.5189 14.5144 25.0211 14.747C25.5124 14.9754 25.9796 15.2557 26.4153 15.5835V6.0778C26.4194 5.67808 26.3448 5.28169 26.1959 4.91294C26.047 4.54418 25.827 4.21082 25.5494 3.93331ZM14.2496 5.63673C14.0444 5.85122 13.7821 5.99751 13.4963 6.05693C13.2106 6.11635 12.9142 6.08622 12.645 5.97038C12.3757 5.85453 12.1459 5.65823 11.9848 5.40649C11.8237 5.15474 11.7385 4.85897 11.7402 4.55688C11.7402 4.15351 11.8948 3.76666 12.17 3.48144C12.4452 3.19621 12.8185 3.03597 13.2077 3.03597C13.5969 3.03597 13.9702 3.19621 14.2454 3.48144C14.5206 3.76666 14.6752 4.15351 14.6752 4.55688C14.6763 4.75705 14.6393 4.95547 14.5663 5.14077C14.4933 5.32608 14.3857 5.49462 14.2496 5.63673Z" fill="#031926"/>
<path d="M25.8576 19.0057C25.176 18.2975 24.3663 17.7357 23.4749 17.3523C22.5834 16.9689 21.6278 16.7716 20.6627 16.7716C19.6975 16.7716 18.7419 16.9689 17.8504 17.3523C16.959 17.7357 16.1493 18.2975 15.4677 19.0057C14.7844 19.7121 14.2422 20.5513 13.8723 21.4752C13.5024 22.3991 13.312 23.3895 13.312 24.3898C13.312 25.39 13.5024 26.3805 13.8723 27.3043C14.2422 28.2282 14.7844 29.0674 15.4677 29.7738C16.1493 30.482 16.959 31.0438 17.8504 31.4272C18.7419 31.8106 19.6975 32.0079 20.6627 32.0079C21.6278 32.0079 22.5834 31.8106 23.4749 31.4272C24.3663 31.0438 25.176 30.482 25.8576 29.7738C26.5409 29.0674 27.0831 28.2282 27.453 27.3043C27.8229 26.3805 28.0133 25.39 28.0133 24.3898C28.0133 23.3895 27.8229 22.3991 27.453 21.4752C27.0831 20.5513 26.5409 19.7121 25.8576 19.0057ZM24.6396 21.9411L19.2979 27.8879C19.2276 27.9638 19.1433 28.0245 19.0501 28.0663C18.9568 28.1081 18.8565 28.1301 18.7549 28.1312H18.6668C18.5518 28.1169 18.4416 28.0751 18.3449 28.0091C18.2481 27.9431 18.1674 27.8548 18.1092 27.751L16.6417 24.9069C16.5926 24.8205 16.5609 24.7247 16.5484 24.6253C16.5358 24.5259 16.5428 24.4249 16.5688 24.3283C16.5949 24.2317 16.6394 24.1416 16.6999 24.0633C16.7603 23.985 16.8353 23.9202 16.9205 23.8727C17.0899 23.7741 17.29 23.7492 17.4771 23.8034C17.6641 23.8576 17.8229 23.9864 17.9184 24.1616L18.9457 26.0932L23.6123 20.9221C23.752 20.7818 23.9388 20.7033 24.1333 20.7033C24.3278 20.7033 24.5146 20.7818 24.6543 20.9221C24.774 21.0637 24.8387 21.2463 24.836 21.4345C24.8333 21.6227 24.7633 21.8033 24.6396 21.9411Z" fill="#031926"/>
</svg>
