<svg width="28" height="33" viewBox="0 0 28 33" fill="none" xmlns="http://www.w3.org/2000/svg">
<g clip-path="url(#clip0_10_97)">
<path d="M25.5492 4.0396C25.2814 3.75189 24.9598 3.5239 24.604 3.3696C24.2482 3.21529 23.8657 3.13793 23.48 3.14226H17.3458C17.0405 2.2645 16.4885 1.50167 15.7609 0.952149C15.0153 0.401955 14.1228 0.106293 13.2075 0.106293C12.2922 0.106293 11.3996 0.401955 10.654 0.952149C9.92643 1.50167 9.3744 2.2645 9.0691 3.14226H2.93493C2.54925 3.13793 2.16679 3.21529 1.81098 3.3696C1.45517 3.5239 1.13352 3.75189 0.86575 4.0396C0.588144 4.31712 0.368156 4.65047 0.219272 5.01923C0.0703875 5.38799 -0.00425453 5.78437 -7.80783e-05 6.18409V27.4769C-0.00425453 27.8766 0.0703875 28.273 0.219272 28.6417C0.368156 29.0105 0.588144 29.3438 0.86575 29.6214C1.13352 29.9091 1.45517 30.1371 1.81098 30.2914C2.16679 30.4457 2.54925 30.523 2.93493 30.5187H12.1068C11.7905 30.0671 11.5201 29.583 11.2997 29.0738C11.0753 28.5533 10.8793 28.0202 10.7127 27.4769H2.93493V6.18409H5.86994V10.7468H20.545V6.18409H23.48V14.2449C24.0042 14.4176 24.5187 14.6207 25.0209 14.8533C25.5121 15.0817 25.9793 15.362 26.415 15.6898V6.18409C26.4192 5.78437 26.3446 5.38799 26.1957 5.01923C26.0468 4.65047 25.8268 4.31712 25.5492 4.0396ZM14.2494 5.74302C14.0441 5.95752 13.7819 6.1038 13.4961 6.16322C13.2103 6.22264 12.9139 6.19251 12.6447 6.07667C12.3755 5.96082 12.1457 5.76452 11.9846 5.51278C11.8234 5.26104 11.7383 4.96527 11.74 4.66318C11.74 4.2598 11.8946 3.87295 12.1698 3.58773C12.445 3.3025 12.8183 3.14226 13.2075 3.14226C13.5967 3.14226 13.9699 3.3025 14.2452 3.58773C14.5204 3.87295 14.675 4.2598 14.675 4.66318C14.6761 4.86334 14.6391 5.06176 14.566 5.24706C14.493 5.43237 14.3854 5.60091 14.2494 5.74302Z" fill="#D7F9FF"/>
<path d="M25.8574 19.112C25.1758 18.4038 24.3661 17.8419 23.4746 17.4586C22.5832 17.0752 21.6275 16.8779 20.6624 16.8779C19.6973 16.8779 18.7416 17.0752 17.8502 17.4586C16.9587 17.8419 16.149 18.4038 15.4674 19.112C14.7841 19.8184 14.242 20.6576 13.8721 21.5814C13.5022 22.5053 13.3118 23.4958 13.3118 24.496C13.3118 25.4963 13.5022 26.4867 13.8721 27.4106C14.242 28.3345 14.7841 29.1737 15.4674 29.8801C16.149 30.5882 16.9587 31.1501 17.8502 31.5335C18.7416 31.9168 19.6973 32.1142 20.6624 32.1142C21.6275 32.1142 22.5832 31.9168 23.4746 31.5335C24.3661 31.1501 25.1758 30.5882 25.8574 29.8801C26.5407 29.1737 27.0828 28.3345 27.4527 27.4106C27.8226 26.4867 28.0131 25.4963 28.0131 24.496C28.0131 23.4958 27.8226 22.5053 27.4527 21.5814C27.0828 20.6576 26.5407 19.8184 25.8574 19.112ZM24.6394 22.0474L19.2976 27.9941C19.2273 28.0701 19.1431 28.1308 19.0498 28.1725C18.9566 28.2143 18.8562 28.2364 18.7547 28.2375H18.6666C18.5516 28.2231 18.4414 28.1813 18.3446 28.1154C18.2478 28.0494 18.1672 27.961 18.109 27.8572L16.6414 25.0131C16.5924 24.9267 16.5606 24.831 16.5481 24.7315C16.5356 24.6321 16.5426 24.5311 16.5686 24.4346C16.5946 24.338 16.6392 24.2479 16.6996 24.1696C16.76 24.0913 16.8351 24.0264 16.9203 23.9789C17.0896 23.8804 17.2898 23.8555 17.4768 23.9097C17.6639 23.9638 17.8226 24.0927 17.9182 24.2679L18.9454 26.1994L23.6121 21.0283C23.7517 20.888 23.9386 20.8096 24.1331 20.8096C24.3275 20.8096 24.5144 20.888 24.654 21.0283C24.7737 21.17 24.8385 21.3525 24.8358 21.5408C24.833 21.729 24.7631 21.9095 24.6394 22.0474Z" fill="#D7F9FF"/>
</g>
<defs>
<clipPath id="clip0_10_97">
<rect width="28" height="32" fill="white" transform="translate(0 0.100586)"/>
</clipPath>
</defs>
</svg>
