<svg width="32" height="32" viewBox="0 0 32 32" fill="none" xmlns="http://www.w3.org/2000/svg">
<path d="M0 29.2495H31.5V31.4995H0V29.2495ZM28.125 10.1245C28.4234 10.1245 28.7095 10.006 28.9205 9.79502C29.1315 9.58404 29.25 9.29789 29.25 8.99952V5.62452C29.2499 5.39332 29.1786 5.16776 29.0457 4.97854C28.9129 4.78932 28.7249 4.64563 28.5075 4.56702L16.1325 0.0670214C15.8853 -0.0223405 15.6147 -0.0223405 15.3675 0.0670214L2.9925 4.56702C2.77507 4.64563 2.58714 4.78932 2.45429 4.97854C2.32143 5.16776 2.2501 5.39332 2.25 5.62452V8.99952C2.25 9.29789 2.36853 9.58404 2.5795 9.79502C2.79048 10.006 3.07663 10.1245 3.375 10.1245H4.5V24.7495H2.25V26.9995H29.25V24.7495H27V10.1245H28.125ZM4.5 6.41202L15.75 2.31702L27 6.41202V7.87452H4.5V6.41202ZM18 24.7495H13.5V10.1245H18V24.7495ZM6.75 10.1245H11.25V24.7495H6.75V10.1245ZM24.75 24.7495H20.25V10.1245H24.75V24.7495Z" fill="#031926"/>
</svg>
