<svg width="36" height="37" viewBox="0 0 36 37" fill="none" xmlns="http://www.w3.org/2000/svg">
<path d="M2.25 32.4697H33.75V34.7197H2.25V32.4697ZM30.375 13.3447C30.6734 13.3447 30.9595 13.2262 31.1705 13.0152C31.3815 12.8042 31.5 12.5181 31.5 12.2197V8.84472C31.4999 8.61352 31.4286 8.38796 31.2957 8.19874C31.1629 8.00952 30.9749 7.86583 30.7575 7.78722L18.3825 3.28722C18.1353 3.19786 17.8647 3.19786 17.6175 3.28722L5.2425 7.78722C5.02507 7.86583 4.83714 8.00952 4.70429 8.19874C4.57143 8.38796 4.5001 8.61352 4.5 8.84472V12.2197C4.5 12.5181 4.61853 12.8042 4.8295 13.0152C5.04048 13.2262 5.32663 13.3447 5.625 13.3447H6.75V27.9697H4.5V30.2197H31.5V27.9697H29.25V13.3447H30.375ZM6.75 9.63222L18 5.53722L29.25 9.63222V11.0947H6.75V9.63222ZM20.25 27.9697H15.75V13.3447H20.25V27.9697ZM9 13.3447H13.5V27.9697H9V13.3447ZM27 27.9697H22.5V13.3447H27V27.9697Z" fill="#D7F9FF"/>
</svg>
