<svg width="28" height="31" viewBox="0 0 28 31" fill="none" xmlns="http://www.w3.org/2000/svg">
<path d="M25.5373 3.89398C25.2697 3.6165 24.9482 3.39662 24.5925 3.2478C24.2369 3.09899 23.8546 3.02438 23.4691 3.02856H17.3379C17.0327 2.18202 16.4809 1.44633 15.7537 0.916353C15.0084 0.385731 14.1163 0.100586 13.2015 0.100586C12.2866 0.100586 11.3945 0.385731 10.6492 0.916353C9.92197 1.44633 9.3702 2.18202 9.06505 3.02856H2.93378C2.54829 3.02438 2.166 3.09899 1.81036 3.2478C1.45472 3.39662 1.13323 3.6165 0.865583 3.89398C0.58811 4.16162 0.368225 4.48312 0.219412 4.83875C0.0705981 5.19439 -0.00400849 5.57668 0.000165984 5.96218V26.4975C-0.00400849 26.883 0.0705981 27.2653 0.219412 27.6209C0.368225 27.9766 0.58811 28.2981 0.865583 28.5657C1.13323 28.8432 1.45472 29.0631 1.81036 29.2119C2.166 29.3607 2.54829 29.4353 2.93378 29.4311H12.1013C11.7852 28.9956 11.5148 28.5287 11.2946 28.0377C11.0703 27.5357 10.8744 27.0215 10.7079 26.4975H2.93378V5.96218H5.8674V10.3626H20.5355V5.96218H23.4691V13.7363C23.9931 13.9028 24.5073 14.0987 25.0093 14.323C25.5003 14.5432 25.9672 14.8136 26.4027 15.1297V5.96218C26.4069 5.57668 26.3323 5.19439 26.1835 4.83875C26.0347 4.48312 25.8148 4.16162 25.5373 3.89398ZM14.2429 5.5368C14.0377 5.74366 13.7756 5.88474 13.4899 5.94205C13.2043 5.99936 12.908 5.9703 12.639 5.85858C12.3699 5.74685 12.1402 5.55753 11.9791 5.31475C11.8181 5.07196 11.7329 4.78671 11.7346 4.49537C11.7346 4.10635 11.8892 3.73326 12.1643 3.45818C12.4393 3.1831 12.8124 3.02856 13.2015 3.02856C13.5905 3.02856 13.9636 3.1831 14.2386 3.45818C14.5137 3.73326 14.6683 4.10635 14.6683 4.49537C14.6694 4.68841 14.6324 4.87977 14.5594 5.05849C14.4864 5.2372 14.3788 5.39974 14.2429 5.5368Z" fill="#D7F9FF"/>
<path d="M25.8453 18.43C25.1641 17.747 24.3547 17.2052 23.4637 16.8354C22.5727 16.4657 21.6175 16.2754 20.6528 16.2754C19.6881 16.2754 18.7329 16.4657 17.8419 16.8354C16.9509 17.2052 16.1416 17.747 15.4603 18.43C14.7773 19.1113 14.2354 19.9206 13.8657 20.8116C13.496 21.7027 13.3057 22.6579 13.3057 23.6225C13.3057 24.5872 13.496 25.5424 13.8657 26.4334C14.2354 27.3245 14.7773 28.1338 15.4603 28.8151C16.1416 29.498 16.9509 30.0399 17.8419 30.4097C18.7329 30.7794 19.6881 30.9697 20.6528 30.9697C21.6175 30.9697 22.5727 30.7794 23.4637 30.4097C24.3547 30.0399 25.1641 29.498 25.8453 28.8151C26.5283 28.1338 27.0702 27.3245 27.4399 26.4334C27.8097 25.5424 28 24.5872 28 23.6225C28 22.6579 27.8097 21.7027 27.4399 20.8116C27.0702 19.9206 26.5283 19.1113 25.8453 18.43ZM23.4691 25.7641L21.1955 28.0523C21.0575 28.1791 20.8769 28.2495 20.6895 28.2495C20.5021 28.2495 20.3215 28.1791 20.1834 28.0523L17.8806 25.7641C17.8149 25.6987 17.7628 25.621 17.7273 25.5354C17.6918 25.4498 17.6735 25.358 17.6735 25.2654C17.6735 25.1727 17.6918 25.081 17.7273 24.9954C17.7628 24.9098 17.8149 24.8321 17.8806 24.7667C17.946 24.701 18.0237 24.6489 18.1093 24.6134C18.1948 24.5779 18.2866 24.5596 18.3793 24.5596C18.4719 24.5596 18.5637 24.5779 18.6493 24.6134C18.7348 24.6489 18.8126 24.701 18.878 24.7667L19.9488 25.8228V19.7062C19.9488 19.5117 20.026 19.3251 20.1636 19.1876C20.3011 19.05 20.4876 18.9728 20.6822 18.9728C20.8767 18.9728 21.0632 19.05 21.2008 19.1876C21.3383 19.3251 21.4156 19.5117 21.4156 19.7062V25.8228L22.4717 24.7667C22.6063 24.6332 22.7882 24.5583 22.9777 24.5583C23.1673 24.5583 23.3492 24.6332 23.4838 24.7667C23.5484 24.833 23.5994 24.9115 23.6337 24.9976C23.668 25.0837 23.6849 25.1758 23.6835 25.2684C23.6822 25.3611 23.6625 25.4526 23.6257 25.5376C23.5889 25.6227 23.5357 25.6996 23.4691 25.7641Z" fill="#D7F9FF"/>
</svg>
