<svg width="36" height="36" viewBox="0 0 36 36" fill="none" xmlns="http://www.w3.org/2000/svg">
<path d="M35.9988 17.936C35.9801 18.3469 35.808 18.7359 35.5163 19.0267C35.2246 19.3176 34.8343 19.4892 34.4222 19.5078H34.3675C33.967 19.5124 33.5783 19.3729 33.2726 19.1148L17.9447 3.83337L2.73714 19.0712C2.41666 19.3517 2.00302 19.5034 1.57659 19.4969C1.16447 19.4782 0.774236 19.3067 0.482524 19.0158C0.190812 18.725 0.0187041 18.3359 3.59919e-06 17.9251C-0.000816882 17.5265 0.138666 17.1402 0.394151 16.8335L16.817 0.460524C17.1284 0.16489 17.542 0 17.972 0C18.4021 0 18.8156 0.16489 19.1271 0.460524L35.9769 17.1501L35.8784 17.2483C35.9667 17.4665 36.0077 17.7009 35.9988 17.936Z" fill="#031926"/>
<path d="M31.6851 19.5842V33.2066C31.6865 33.5653 31.6167 33.9208 31.4797 34.2526C31.3427 34.5843 31.1411 34.8857 30.8866 35.1394C30.6322 35.3931 30.3299 35.594 29.9971 35.7306C29.6644 35.8673 29.3078 35.9369 28.948 35.9354H20.7366V25.0419H15.2623V35.9573H7.05088C6.69103 35.9587 6.33445 35.8891 6.00171 35.7525C5.66897 35.6158 5.36666 35.4149 5.1122 35.1612C4.85775 34.9075 4.65619 34.6061 4.51915 34.2744C4.3821 33.9427 4.31229 33.5872 4.31374 33.2284V19.8789L7.59831 16.6043V32.6826H11.9777V21.7673H24.0211V32.6826H28.4005V16.3096L31.6851 19.5842Z" fill="#031926"/>
</svg>
