<svg width="36" height="37" viewBox="0 0 36 37" fill="none" xmlns="http://www.w3.org/2000/svg">
<path d="M35.9988 18.0793C35.9801 18.4902 35.808 18.8792 35.5163 19.1701C35.2246 19.4609 34.8343 19.6325 34.4222 19.6511H34.3675C33.967 19.6557 33.5783 19.5162 33.2726 19.2582L17.9447 3.97668L2.73714 19.2145C2.41666 19.495 2.00302 19.6467 1.57659 19.6402C1.16447 19.6216 0.774236 19.45 0.482524 19.1591C0.190812 18.8683 0.0187041 18.4793 3.59919e-06 18.0684C-0.000816882 17.6698 0.138666 17.2835 0.394151 16.9769L16.817 0.603834C17.1284 0.3082 17.542 0.143311 17.972 0.143311C18.4021 0.143311 18.8156 0.3082 19.1271 0.603834L35.9769 17.2934L35.8784 17.3916C35.9667 17.6098 36.0077 17.8442 35.9988 18.0793Z" fill="#D7F9FF"/>
<path d="M31.6851 19.7275V33.3498C31.6865 33.7086 31.6167 34.0641 31.4797 34.3958C31.3426 34.7275 31.1411 35.0289 30.8866 35.2826C30.6322 35.5363 30.3298 35.7373 29.9971 35.8739C29.6644 36.0105 29.3078 36.0801 28.9479 36.0787H20.7365V25.1852H15.2623V36.1005H7.05085C6.691 36.1019 6.33442 36.0323 6.00168 35.8957C5.66894 35.7591 5.36663 35.5581 5.11217 35.3045C4.85772 35.0508 4.65616 34.7494 4.51911 34.4177C4.38207 34.0859 4.31226 33.7304 4.31371 33.3717V20.0222L7.59827 16.7476V32.8259H11.9777V21.9106H24.0211V32.8259H28.4005V16.4529L31.6851 19.7275Z" fill="#D7F9FF"/>
</svg>
