<svg width="36" height="37" viewBox="0 0 36 37" fill="none" xmlns="http://www.w3.org/2000/svg">
<path d="M25.5 33.1006C23.425 33.1006 21.6565 32.3696 20.1945 30.9076C18.7315 29.4446 18 27.6756 18 25.6006C18 23.5256 18.7315 21.7566 20.1945 20.2936C21.6565 18.8316 23.425 18.1006 25.5 18.1006C27.575 18.1006 29.344 18.8316 30.807 20.2936C32.269 21.7566 33 23.5256 33 25.6006C33 27.6756 32.269 29.4446 30.807 30.9076C29.344 32.3696 27.575 33.1006 25.5 33.1006ZM28.0125 29.1631L29.0625 28.1131L26.25 25.3006V21.1006H24.75V25.9006L28.0125 29.1631ZM7.5 31.6006C6.675 31.6006 5.9685 31.3071 5.3805 30.7201C4.7935 30.1321 4.5 29.4256 4.5 28.6006V7.60059C4.5 6.77559 4.7935 6.06909 5.3805 5.48109C5.9685 4.89409 6.675 4.60059 7.5 4.60059H13.7625C14.0875 3.72559 14.631 3.00659 15.393 2.44359C16.156 1.88159 17.025 1.60059 18 1.60059C18.975 1.60059 19.844 1.88159 20.607 2.44359C21.369 3.00659 21.9125 3.72559 22.2375 4.60059H28.5C29.325 4.60059 30.0315 4.89409 30.6195 5.48109C31.2065 6.06909 31.5 6.77559 31.5 7.60059V16.9756C31.05 16.6506 30.575 16.3756 30.075 16.1506C29.575 15.9256 29.05 15.7256 28.5 15.5506V7.60059H25.5V12.1006H10.5V7.60059H7.5V28.6006H15.45C15.625 29.1506 15.825 29.6756 16.05 30.1756C16.275 30.6756 16.55 31.1506 16.875 31.6006H7.5ZM18 7.60059C18.425 7.60059 18.7815 7.45659 19.0695 7.16859C19.3565 6.88159 19.5 6.52559 19.5 6.10059C19.5 5.67559 19.3565 5.31909 19.0695 5.03109C18.7815 4.74409 18.425 4.60059 18 4.60059C17.575 4.60059 17.219 4.74409 16.932 5.03109C16.644 5.31909 16.5 5.67559 16.5 6.10059C16.5 6.52559 16.644 6.88159 16.932 7.16859C17.219 7.45659 17.575 7.60059 18 7.60059Z" fill="#D7F9FF"/>
</svg>
