<svg width="29" height="32" viewBox="0 0 29 32" fill="none" xmlns="http://www.w3.org/2000/svg">
<path d="M21 32C18.925 32 17.1565 31.269 15.6945 29.807C14.2315 28.344 13.5 26.575 13.5 24.5C13.5 22.425 14.2315 20.656 15.6945 19.193C17.1565 17.731 18.925 17 21 17C23.075 17 24.844 17.731 26.307 19.193C27.769 20.656 28.5 22.425 28.5 24.5C28.5 26.575 27.769 28.344 26.307 29.807C24.844 31.269 23.075 32 21 32ZM23.5125 28.0625L24.5625 27.0125L21.75 24.2V20H20.25V24.8L23.5125 28.0625ZM3 30.5C2.175 30.5 1.4685 30.2065 0.8805 29.6195C0.2935 29.0315 0 28.325 0 27.5V6.5C0 5.675 0.2935 4.9685 0.8805 4.3805C1.4685 3.7935 2.175 3.5 3 3.5H9.2625C9.5875 2.625 10.131 1.906 10.893 1.343C11.656 0.781 12.525 0.5 13.5 0.5C14.475 0.5 15.344 0.781 16.107 1.343C16.869 1.906 17.4125 2.625 17.7375 3.5H24C24.825 3.5 25.5315 3.7935 26.1195 4.3805C26.7065 4.9685 27 5.675 27 6.5V15.875C26.55 15.55 26.075 15.275 25.575 15.05C25.075 14.825 24.55 14.625 24 14.45V6.5H21V11H6V6.5H3V27.5H10.95C11.125 28.05 11.325 28.575 11.55 29.075C11.775 29.575 12.05 30.05 12.375 30.5H3ZM13.5 6.5C13.925 6.5 14.2815 6.356 14.5695 6.068C14.8565 5.781 15 5.425 15 5C15 4.575 14.8565 4.2185 14.5695 3.9305C14.2815 3.6435 13.925 3.5 13.5 3.5C13.075 3.5 12.719 3.6435 12.432 3.9305C12.144 4.2185 12 4.575 12 5C12 5.425 12.144 5.781 12.432 6.068C12.719 6.356 13.075 6.5 13.5 6.5Z" fill="#031926"/>
</svg>
