<svg width="35" height="35" viewBox="0 0 35 35" fill="none" xmlns="http://www.w3.org/2000/svg">
<path d="M17.4999 17.5C21.527 17.5 24.7916 14.2354 24.7916 10.2083C24.7916 6.18126 21.527 2.91667 17.4999 2.91667C13.4728 2.91667 10.2083 6.18126 10.2083 10.2083C10.2083 14.2354 13.4728 17.5 17.4999 17.5Z" stroke="white" stroke-width="2"/>
<path d="M24.7916 20.4167H25.3049C26.3711 20.417 27.4004 20.8066 28.1996 21.5123C28.9988 22.218 29.5127 23.1912 29.6449 24.2492L30.2151 28.805C30.2664 29.2154 30.2298 29.6321 30.1078 30.0273C29.9858 30.4224 29.7811 30.7872 29.5073 31.0972C29.2335 31.4072 28.897 31.6555 28.5199 31.8255C28.1429 31.9955 27.734 32.0834 27.3203 32.0833H7.67951C7.2659 32.0834 6.857 31.9955 6.47995 31.8255C6.1029 31.6555 5.76632 31.4072 5.49256 31.0972C5.21879 30.7872 5.01409 30.4224 4.89206 30.0273C4.77002 29.6321 4.73343 29.2154 4.78472 28.805L5.35347 24.2492C5.48573 23.1907 6.00012 22.2171 6.79989 21.5113C7.59966 20.8055 8.62973 20.4163 9.69638 20.4167H10.2083" stroke="white" stroke-width="2" stroke-linecap="round" stroke-linejoin="round"/>
</svg>
