<svg width="28" height="31" viewBox="0 0 28 31" fill="none" xmlns="http://www.w3.org/2000/svg">
<path d="M25.5373 3.79339C25.2697 3.51592 24.9482 3.29603 24.5925 3.14722C24.2369 2.9984 23.8546 2.9238 23.4691 2.92797H17.3379C17.0327 2.08144 16.4809 1.34574 15.7537 0.815767C15.0084 0.285145 14.1163 0 13.2015 0C12.2866 0 11.3945 0.285145 10.6492 0.815767C9.92197 1.34574 9.3702 2.08144 9.06505 2.92797H2.93378C2.54829 2.9238 2.166 2.9984 1.81036 3.14722C1.45472 3.29603 1.13323 3.51592 0.865583 3.79339C0.58811 4.06103 0.368225 4.38253 0.219412 4.73817C0.0705981 5.09381 -0.00400849 5.47609 0.000165984 5.86159V26.3969C-0.00400849 26.7824 0.0705981 27.1647 0.219412 27.5203C0.368225 27.876 0.58811 28.1975 0.865583 28.4651C1.13323 28.7426 1.45472 28.9625 1.81036 29.1113C2.166 29.2601 2.54829 29.3347 2.93378 29.3305H12.1013C11.7852 28.8951 11.5148 28.4281 11.2946 27.9371C11.0703 27.4351 10.8744 26.9209 10.7079 26.3969H2.93378V5.86159H5.8674V10.262H20.5355V5.86159H23.4691V13.6357C23.9931 13.8022 24.5073 13.9981 25.0093 14.2224C25.5003 14.4426 25.9672 14.713 26.4027 15.0291V5.86159C26.4069 5.47609 26.3323 5.09381 26.1835 4.73817C26.0347 4.38253 25.8148 4.06103 25.5373 3.79339ZM14.2429 5.43622C14.0377 5.64308 13.7756 5.78416 13.4899 5.84146C13.2043 5.89877 12.908 5.86971 12.639 5.75799C12.3699 5.64627 12.1402 5.45695 11.9791 5.21416C11.8181 4.97137 11.7329 4.68613 11.7346 4.39478C11.7346 4.00576 11.8892 3.63267 12.1643 3.35759C12.4393 3.08251 12.8124 2.92797 13.2015 2.92797C13.5905 2.92797 13.9636 3.08251 14.2386 3.35759C14.5137 3.63267 14.6683 4.00576 14.6683 4.39478C14.6694 4.58782 14.6324 4.77919 14.5594 4.9579C14.4864 5.13661 14.3788 5.29916 14.2429 5.43622Z" fill="#031926"/>
<path d="M25.8453 18.3294C25.1641 17.6464 24.3547 17.1045 23.4637 16.7348C22.5727 16.3651 21.6175 16.1748 20.6528 16.1748C19.6881 16.1748 18.7329 16.3651 17.8419 16.7348C16.9509 17.1045 16.1416 17.6464 15.4603 18.3294C14.7773 19.0107 14.2354 19.82 13.8657 20.711C13.496 21.602 13.3057 22.5572 13.3057 23.5219C13.3057 24.4866 13.496 25.4418 13.8657 26.3328C14.2354 27.2238 14.7773 28.0332 15.4603 28.7144C16.1416 29.3974 16.9509 29.9393 17.8419 30.309C18.7329 30.6788 19.6881 30.8691 20.6528 30.8691C21.6175 30.8691 22.5727 30.6788 23.4637 30.309C24.3547 29.9393 25.1641 29.3974 25.8453 28.7144C26.5283 28.0332 27.0702 27.2238 27.4399 26.3328C27.8097 25.4418 28 24.4866 28 23.5219C28 22.5572 27.8097 21.602 27.4399 20.711C27.0702 19.82 26.5283 19.0107 25.8453 18.3294ZM23.4691 25.6635L21.1955 27.9517C21.0575 28.0785 20.8769 28.1488 20.6895 28.1488C20.5021 28.1488 20.3215 28.0785 20.1834 27.9517L17.8806 25.6635C17.8149 25.598 17.7628 25.5203 17.7273 25.4347C17.6918 25.3492 17.6735 25.2574 17.6735 25.1647C17.6735 25.0721 17.6918 24.9803 17.7273 24.8947C17.7628 24.8092 17.8149 24.7314 17.8806 24.666C17.946 24.6004 18.0237 24.5483 18.1093 24.5128C18.1948 24.4772 18.2866 24.4589 18.3793 24.4589C18.4719 24.4589 18.5637 24.4772 18.6493 24.5128C18.7348 24.5483 18.8126 24.6004 18.878 24.666L19.9488 25.7221V19.6055C19.9488 19.411 20.026 19.2245 20.1636 19.0869C20.3011 18.9494 20.4876 18.8721 20.6822 18.8721C20.8767 18.8721 21.0632 18.9494 21.2008 19.0869C21.3383 19.2245 21.4156 19.411 21.4156 19.6055V25.7221L22.4717 24.666C22.6063 24.5326 22.7882 24.4577 22.9777 24.4577C23.1673 24.4577 23.3492 24.5326 23.4838 24.666C23.5484 24.7324 23.5994 24.8109 23.6337 24.897C23.668 24.9831 23.6849 25.0751 23.6835 25.1678C23.6822 25.2605 23.6625 25.3519 23.6257 25.437C23.5889 25.5221 23.5357 25.599 23.4691 25.6635Z" fill="#031926"/>
</svg>
